HIERARCHY
ROOT Hips
{
	OFFSET 0.000000 0.000000 0.000000 
	CHANNELS 6 Xposition Yposition Zposition Yrotation Xrotation Zrotation
	JOINT Spine
	{
		OFFSET 0.000000 0.072080 0.012321 
		CHANNELS 3 Xrotation Yrotation Zrotation
		JOINT Spine1
		{
			OFFSET 0.000000 0.126984 -0.001294 
			CHANNELS 3 Xrotation Yrotation Zrotation
			JOINT Spine2
			{
				OFFSET 0.000000 0.106559 -0.010096 
				CHANNELS 3 Xrotation Yrotation Zrotation
				JOINT Neck
				{
					OFFSET 0.000000 0.108417 -0.034017 
					CHANNELS 3 Xrotation Yrotation Zrotation
					JOINT Neck1
					{
						OFFSET 0.000000 0.033906 0.007241 
						CHANNELS 3 Xrotation Yrotation Zrotation
						JOINT Head
						{
							OFFSET 0.000000 0.031458 0.006707 
							CHANNELS 3 Xrotation Yrotation Zrotation
							End Site
							{
								OFFSET 0.000000 0.179920 0.000962 
							}
						}
					}
				}
				JOINT LeftShoulder
				{
					OFFSET 0.048002 0.079586 -0.029634 
					CHANNELS 3 Zrotation Xrotation Yrotation
					JOINT LeftArm
					{
						OFFSET 0.096243 -0.008695 -0.014012 
						CHANNELS 3 Zrotation Xrotation Yrotation
						JOINT LeftForeArm
						{
							OFFSET 0.216305 0.000000 0.000000 
							CHANNELS 3 Xrotation Zrotation Yrotation
							JOINT LeftHand
							{
								OFFSET 0.217764 0.000000 0.000000 
								CHANNELS 3 Zrotation Yrotation Xrotation
								JOINT LeftHandThumb1
								{
									OFFSET 0.018582 -0.007835 0.020476 
									CHANNELS 3 Zrotation Xrotation Yrotation
									JOINT LeftHandThumb2
									{
										OFFSET 0.026269 -0.007835 0.022186 
										CHANNELS 3 Zrotation Xrotation Yrotation
										JOINT LeftHandThumb3
										{
											OFFSET 0.035170 -0.010504 0.017018 
											CHANNELS 3 Zrotation Xrotation Yrotation
											End Site
											{
												OFFSET 0.020312 -0.007813 0.007813 
											}
										}
									}
								}
								JOINT LeftHandMiddle1
								{
									OFFSET 0.081749 0.004803 0.003358 
									CHANNELS 3 Zrotation Xrotation Yrotation
									JOINT LeftHandMiddle2
									{
										OFFSET 0.045251 0.000000 0.000000 
										CHANNELS 3 Zrotation Xrotation Yrotation
										JOINT LeftHandMiddle3
										{
											OFFSET 0.029009 0.000000 0.000000 
											CHANNELS 3 Zrotation Xrotation Yrotation
											End Site
											{
												OFFSET 0.017969 0.000000 0.000000 
											}
										}
									}
								}
								JOINT LeftHandIndex1
								{
									OFFSET 0.081207 0.004803 0.021137 
									CHANNELS 3 Zrotation Xrotation Yrotation
									JOINT LeftHandIndex2
									{
										OFFSET 0.043354 0.000000 0.000000 
										CHANNELS 3 Zrotation Xrotation Yrotation
										JOINT LeftHandIndex3
										{
											OFFSET 0.026493 0.000000 0.000000 
											CHANNELS 3 Zrotation Xrotation Yrotation
											End Site
											{
												OFFSET 0.019531 0.000000 0.000000 
											}
										}
									}
								}
								JOINT LeftHandRing1
								{
									OFFSET 0.080666 0.002509 -0.014652 
									CHANNELS 3 Zrotation Xrotation Yrotation
									JOINT LeftHandRing2
									{
										OFFSET 0.042541 0.000000 0.000000 
										CHANNELS 3 Zrotation Xrotation Yrotation
										JOINT LeftHandRing3
										{
											OFFSET 0.029009 0.000000 0.000000 
											CHANNELS 3 Zrotation Xrotation Yrotation
											End Site
											{
												OFFSET 0.015625 0.000000 0.000000 
											}
										}
									}
								}
								JOINT LeftHandPinky1
								{
									OFFSET 0.078227 -0.000612 -0.030993 
									CHANNELS 3 Zrotation Xrotation Yrotation
									JOINT LeftHandPinky2
									{
										OFFSET 0.028721 0.000000 0.000000 
										CHANNELS 3 Zrotation Xrotation Yrotation
										JOINT LeftHandPinky3
										{
											OFFSET 0.021963 0.000000 0.000000 
											CHANNELS 3 Zrotation Xrotation Yrotation
											End Site
											{
												OFFSET 0.022656 0.000000 0.000000 
											}
										}
									}
								}
							}
						}
					}
				}
				JOINT RightShoulder
				{
					OFFSET -0.047970 0.079586 -0.029634 
					CHANNELS 3 Zrotation Xrotation Yrotation
					JOINT RightArm
					{
						OFFSET -0.096274 -0.008695 -0.014012 
						CHANNELS 3 Zrotation Xrotation Yrotation
						JOINT RightForeArm
						{
							OFFSET -0.216305 0.000000 0.000000 
							CHANNELS 3 Xrotation Zrotation Yrotation
							JOINT RightHand
							{
								OFFSET -0.217764 0.000000 0.000000 
								CHANNELS 3 Zrotation Yrotation Xrotation
								JOINT RightHandThumb1
								{
									OFFSET -0.019670 -0.007318 0.019638 
									CHANNELS 3 Zrotation Xrotation Yrotation
									JOINT RightHandThumb2
									{
										OFFSET -0.025498 -0.008492 0.023179 
										CHANNELS 3 Zrotation Xrotation Yrotation
										JOINT RightHandThumb3
										{
											OFFSET -0.034504 -0.010705 0.016680 
											CHANNELS 3 Zrotation Xrotation Yrotation
											End Site
											{
												OFFSET -0.020312 -0.007813 0.007813 
											}
										}
									}
								}
								JOINT RightHandIndex1
								{
									OFFSET -0.081770 0.003825 0.021187 
									CHANNELS 3 Zrotation Xrotation Yrotation
									JOINT RightHandIndex2
									{
										OFFSET -0.042006 0.000000 0.000000 
										CHANNELS 3 Zrotation Xrotation Yrotation
										JOINT RightHandIndex3
										{
											OFFSET -0.026449 0.000000 0.000000 
											CHANNELS 3 Zrotation Xrotation Yrotation
											End Site
											{
												OFFSET -0.020312 0.000000 0.000000 
											}
										}
									}
								}
								JOINT RightHandMiddle1
								{
									OFFSET -0.084059 0.003825 0.003342 
									CHANNELS 3 Zrotation Xrotation Yrotation
									JOINT RightHandMiddle2
									{
										OFFSET -0.043881 0.000000 0.000000 
										CHANNELS 3 Zrotation Xrotation Yrotation
										JOINT RightHandMiddle3
										{
											OFFSET -0.029191 0.000000 0.000000 
											CHANNELS 3 Zrotation Xrotation Yrotation
											End Site
											{
												OFFSET -0.017969 0.000000 0.000000 
											}
										}
									}
								}
								JOINT RightHandRing1
								{
									OFFSET -0.081798 0.003030 -0.015127 
									CHANNELS 3 Zrotation Xrotation Yrotation
									JOINT RightHandRing2
									{
										OFFSET -0.042198 0.000000 0.000000 
										CHANNELS 3 Zrotation Xrotation Yrotation
										JOINT RightHandRing3
										{
											OFFSET -0.026497 0.000000 0.000000 
											CHANNELS 3 Zrotation Xrotation Yrotation
											End Site
											{
												OFFSET -0.017188 0.000000 0.000000 
											}
										}
									}
								}
								JOINT RightHandPinky1
								{
									OFFSET -0.077902 -0.000930 -0.030891 
									CHANNELS 3 Zrotation Xrotation Yrotation
									JOINT RightHandPinky2
									{
										OFFSET -0.028538 0.000000 0.000000 
										CHANNELS 3 Zrotation Xrotation Yrotation
										JOINT RightHandPinky3
										{
											OFFSET -0.021734 0.000000 0.000000 
											CHANNELS 3 Zrotation Xrotation Yrotation
											End Site
											{
												OFFSET -0.022656 0.000000 0.000000 
											}
										}
									}
								}
							}
						}
					}
				}
			}
		}
	}
	JOINT LeftUpLeg
	{
		OFFSET 0.075264 -0.025573 0.000000 
		CHANNELS 3 Xrotation Yrotation Zrotation
		JOINT LeftLeg
		{
			OFFSET 0.000000 -0.326016 -0.013516 
			CHANNELS 3 Xrotation Yrotation Zrotation
			JOINT LeftFoot
			{
				OFFSET 0.000098 -0.306172 -0.006623 
				CHANNELS 3 Xrotation Yrotation Zrotation
				JOINT LeftToeBase
				{
					OFFSET -0.001432 -0.095259 0.064705 
					CHANNELS 3 Xrotation Yrotation Zrotation
					End Site
					{
						OFFSET 0.000000 0.000000 0.079438 
					}
				}
			}
		}
	}
	JOINT RightUpLeg
	{
		OFFSET -0.075264 -0.025573 0.000000 
		CHANNELS 3 Xrotation Yrotation Zrotation
		JOINT RightLeg
		{
			OFFSET 0.000000 -0.326016 -0.013516 
			CHANNELS 3 Xrotation Yrotation Zrotation
			JOINT RightFoot
			{
				OFFSET 0.000098 -0.306172 -0.006623 
				CHANNELS 3 Xrotation Yrotation Zrotation
				JOINT RightToeBase
				{
					OFFSET -0.001432 -0.095259 0.064705 
					CHANNELS 3 Xrotation Yrotation Zrotation
					End Site
					{
						OFFSET 0.000025 0.000000 0.079438 
					}
				}
			}
		}
	}
}
MOTION
Frames: 4
Frame Time: 0.033333
0.039837 0.731512 -0.520409 0.036700 -8.928900 -3.613800 16.077499 -0.462100 2.072600 8.009000 0.758500 0.439300 7.821100 1.116900 0.539200 -1.044900 0.832000 -0.413900 -0.000000 0.000000 -0.000000 -16.980000 -2.623300 1.579100 -13.036000 2.451400 -8.673300 -63.707100 -4.017500 -5.587500 0.000000 -0.000000 -39.301399 20.450800 -13.951500 -16.495501 -6.391800 22.149700 4.492300 7.891700 -1.109100 3.073700 19.153999 -18.036600 3.451700 -27.776501 0.002100 -4.538000 -39.178902 0.003400 -0.009500 -21.380600 0.001000 -0.005500 -28.884501 0.002200 -6.904700 -27.671499 0.001700 -0.007000 -16.327200 0.000600 -0.004200 -32.010601 0.002700 -3.909500 -46.809700 0.004700 -0.011000 -20.671499 0.001000 -0.005300 -42.840000 -5.324200 -3.434900 -23.450500 0.001200 -0.006000 -23.375500 0.001200 -0.006000 14.667700 1.771100 5.841900 53.354301 13.889900 7.610100 -0.000000 -0.000000 30.120100 8.142400 -11.492000 24.035299 5.424800 23.917900 -17.394100 -7.342400 -2.346100 3.827900 -15.432500 -18.749100 2.794000 44.340401 3.507600 4.041000 43.096401 0.002100 0.005400 43.096401 0.002100 0.005400 50.059502 0.003100 -0.496200 64.107300 0.004500 0.007100 43.764500 0.002200 0.005500 59.935600 0.004300 -3.056500 76.644203 0.006100 0.007700 30.675301 0.001100 0.004000 69.972801 -1.423500 -5.398900 52.931400 0.003100 0.006300 48.718601 0.002700 0.005900 -7.027500 -1.920000 1.721600 33.853802 6.892000 2.098900 -17.885000 -0.757100 -2.103000 0.000300 0.000000 -0.000900 -14.810900 -9.294700 -4.415800 43.481800 0.632600 0.809400 -6.841200 -3.616700 6.114200 -6.552000 0.000000 -0.000000 
0.039237 0.729361 -0.540963 -1.087800 -9.329500 -3.876200 15.285600 1.205900 1.647900 7.933100 1.148300 0.399400 7.735300 1.511700 0.495000 -0.833700 0.518200 -0.259100 -0.000000 0.000000 -0.000000 -15.975400 -3.850500 2.318900 -12.788100 2.324800 -8.170300 -65.793098 -1.696800 -1.981300 -0.000000 -0.000000 -33.437801 21.650101 -14.644500 -17.539600 -6.426000 21.632500 4.044400 8.146500 -0.835000 3.030800 19.228300 -17.721500 3.171700 -25.722601 0.001800 -5.909100 -36.740799 0.003000 -0.009000 -19.201900 0.000800 -0.004900 -26.808100 0.001900 -8.537400 -24.702700 0.001400 -0.006300 -13.358600 0.000400 -0.003500 -29.909300 0.002400 -4.712100 -45.097599 0.004400 -0.010700 -19.494101 0.000800 -0.005000 -41.294899 -4.732300 -4.093100 -22.735001 0.001200 -0.005800 -22.661699 0.001200 -0.005800 14.846900 1.830400 6.239200 51.906799 13.425200 8.605600 0.000000 0.000000 33.471901 7.955600 -13.680600 26.181700 5.385200 24.012800 -18.004499 -7.301300 -2.405100 4.560800 -15.089500 -19.041201 3.785400 46.461201 3.540700 2.746100 45.801701 0.002400 0.005700 45.801701 0.002400 0.005700 52.154999 0.003400 -1.220300 66.814301 0.004800 0.007300 46.462898 0.002500 0.005700 61.388000 0.004400 -3.366700 78.639397 0.006400 0.007800 32.654701 0.001300 0.004300 70.607300 -1.186300 -5.435000 53.766399 0.003200 0.006400 49.551998 0.002800 0.006000 -9.277800 -2.067600 2.220400 35.699501 7.809300 1.731200 -17.021799 -0.726800 -2.260700 0.000300 -0.000000 -0.000800 -9.946600 -8.886000 -3.814400 47.001900 0.384600 -0.193000 -8.639000 -3.769000 6.213200 -6.670300 0.000000 -0.000000 
0.038393 0.724934 -0.561466 -1.960900 -9.703200 -3.608400 14.560900 2.766600 0.775900 7.931800 1.526200 0.278200 7.724100 1.892700 0.370600 -0.729000 0.170400 -0.151200 -0.000000 0.000000 -0.000000 -15.320500 -5.387900 2.947900 -12.529500 2.153200 -7.421700 -67.330200 1.993900 1.503700 -0.000000 -0.000000 -28.257799 20.036200 -15.437100 -17.496500 -6.451900 21.061100 3.770600 8.461900 -0.549100 3.337400 19.252399 -17.073000 2.107200 -24.593000 0.001600 -6.599800 -35.603500 0.002800 -0.008800 -18.326599 0.000800 -0.004700 -24.977501 0.001600 -9.526700 -22.668501 0.001200 -0.005800 -11.324700 0.000300 -0.003000 -28.815901 0.002200 -4.928300 -44.204201 0.004300 -0.010500 -19.087400 0.000800 -0.004900 -39.343899 -4.498900 -4.244200 -21.658400 0.001100 -0.005500 -21.587299 0.001000 -0.005500 15.053700 1.890100 6.631400 50.901501 12.432700 9.506500 0.000000 -0.000000 37.161999 7.817300 -15.614300 27.988300 5.380000 24.025499 -18.086500 -7.237500 -2.521100 4.855600 -14.871500 -19.214500 4.425300 48.135601 3.635100 1.694300 48.186798 0.002600 0.005900 48.186798 0.002600 0.005900 53.823101 0.003500 -1.795200 68.929604 0.005100 0.007400 48.566101 0.002700 0.005900 62.315300 0.004500 -3.489200 79.817398 0.006500 0.007800 33.823299 0.001300 0.004400 70.693604 -1.096300 -5.376100 53.897202 0.003300 0.006400 49.682598 0.002800 0.006000 -11.845100 -2.511900 2.126200 38.048401 8.808400 1.341300 -16.344000 -0.679300 -2.492200 0.000300 -0.000000 -0.000900 -4.529500 -9.415300 -4.177100 48.475300 0.843400 -1.352700 -10.333500 -4.000200 6.817700 -6.857200 0.000000 -0.000000 
0.037641 0.719624 -0.582051 -2.669100 -10.047800 -3.018500 13.812000 4.552900 -0.205600 7.963800 1.942200 0.099900 7.744800 2.311200 0.189800 -0.626100 -0.209000 -0.156800 -0.000000 0.000000 -0.000000 -14.833500 -7.184200 3.161500 -12.388700 2.009200 -6.735600 -68.583000 6.723200 5.197000 0.000000 -0.000000 -24.509300 17.746401 -14.300400 -16.031099 -6.471300 20.415701 3.624600 8.795200 -0.000100 2.432800 19.014601 -16.404900 0.297700 -24.334801 0.001600 -7.059000 -35.212502 0.002800 -0.008700 -18.176800 0.000700 -0.004700 -24.447100 0.001500 -10.426000 -21.958099 0.001100 -0.005600 -10.614500 0.000300 -0.002800 -27.906601 0.002100 -5.271700 -43.191399 0.004100 -0.010300 -18.573799 0.000800 -0.004800 -37.484901 -4.270600 -4.041000 -21.113001 0.001000 -0.005400 -21.044600 0.001000 -0.005400 15.132600 1.921100 6.953400 50.680302 11.074700 10.022500 -0.000000 0.000000 41.215000 7.829100 -17.544100 28.885799 5.379900 24.025499 -18.086500 -7.207200 -2.570900 4.990700 -14.705400 -19.316000 4.855300 49.579399 3.767000 0.841800 50.451401 0.002900 0.006100 50.451401 0.002900 0.006100 55.050400 0.003700 -2.014000 70.321999 0.005200 0.007400 49.949402 0.002800 0.006100 62.550800 0.004600 -3.440600 80.130501 0.006600 0.007800 34.134998 0.001400 0.004400 70.337402 -1.167600 -5.290600 53.423199 0.003200 0.006400 49.211201 0.002700 0.006000 -14.399900 -3.132000 1.589500 40.166401 9.688700 1.029400 -15.462700 -0.400800 -2.742200 0.000300 -0.000000 -0.000900 1.365800 -10.416800 -4.635400 47.716900 3.713300 -3.236500 -11.695900 -4.344200 8.068800 -7.455900 0.000000 -0.000000 
